HIERARCHY
ROOT Hips
{
	OFFSET 0.000000 0.000000 0.000000
	CHANNELS 6 Xposition Yposition Zposition Xrotation Yrotation Zrotation
	JOINT LeftUpLeg_virtual
	{
		OFFSET 0.000000 0.000000 0.000000
		CHANNELS 3 Xrotation Yrotation Zrotation
		JOINT LeftUpLeg
		{
			OFFSET 15.427100 -6.655098 0.678600
			CHANNELS 3 Xrotation Yrotation Zrotation
			JOINT LeftLeg
			{
				OFFSET 4.081073 -39.591068 13.024000
				CHANNELS 3 Xrotation Yrotation Zrotation
				JOINT LeftFoot
				{
					OFFSET -4.081074 -37.707932 -15.979700
					CHANNELS 3 Xrotation Yrotation Zrotation
					JOINT LeftToeBase
					{
						OFFSET 5.346399 -15.068900 20.645000
						CHANNELS 3 Xrotation Yrotation Zrotation
						JOINT LeftToe_End
						{
							OFFSET 2.754700 0.931300 11.300900
							CHANNELS 3 Xrotation Yrotation Zrotation
							End Site
							{
								OFFSET 0 0 0
							}
						}
					}
				}
			}
		}
	}
	JOINT RightUpLeg_virtual
	{
		OFFSET 0.000000 0.000000 0.000000
		CHANNELS 3 Xrotation Yrotation Zrotation
		JOINT RightUpLeg
		{
			OFFSET -15.569500 -6.655098 0.678600
			CHANNELS 3 Xrotation Yrotation Zrotation
			JOINT RightLeg
			{
				OFFSET -4.081825 -39.591045 13.023800
				CHANNELS 3 Xrotation Yrotation Zrotation
				JOINT RightFoot
				{
					OFFSET 4.081824 -37.707954 -15.979600
					CHANNELS 3 Xrotation Yrotation Zrotation
					JOINT RightToeBase
					{
						OFFSET -5.346400 -15.068900 20.645000
						CHANNELS 3 Xrotation Yrotation Zrotation
						JOINT RightToe_End
						{
							OFFSET -2.754700 0.931300 11.300900
							CHANNELS 3 Xrotation Yrotation Zrotation
							End Site
							{
								OFFSET 0 0 0
							}
						}
					}
				}
			}
		}
	}
	JOINT Spine_virtual
	{
		OFFSET 0.000000 0.000000 0.000000
		CHANNELS 3 Xrotation Yrotation Zrotation
		JOINT Spine
		{
			OFFSET -0.279200 12.230698 -2.892100
			CHANNELS 3 Xrotation Yrotation Zrotation
			JOINT Spine1
			{
				OFFSET -0.232667 10.192268 -1.242267
				CHANNELS 3 Xrotation Yrotation Zrotation
				JOINT Spine1_split
				{
					OFFSET -0.232667 10.192268 -1.242267
					CHANNELS 3 Xrotation Yrotation Zrotation
					JOINT Spine2
					{
						OFFSET -0.232667 10.192268 -1.242267
						CHANNELS 3 Xrotation Yrotation Zrotation
						JOINT Neck_virtual
						{
							OFFSET 0.000000 0.000000 0.000000
							CHANNELS 3 Xrotation Yrotation Zrotation
							JOINT Neck
							{
								OFFSET -0.418800 17.814194 8.416900
								CHANNELS 3 Xrotation Yrotation Zrotation
								JOINT Head
								{
									OFFSET 0.000000 7.031097 3.806800
									CHANNELS 3 Xrotation Yrotation Zrotation
									JOINT HeadTop_End
									{
										OFFSET 0.000000 24.646606 12.978600
										CHANNELS 3 Xrotation Yrotation Zrotation
										End Site
										{
											OFFSET 0 0 0
										}
									}
								}
							}
						}
						JOINT LeftShoulder_virtual
						{
							OFFSET 0.000000 0.000000 0.000000
							CHANNELS 3 Xrotation Yrotation Zrotation
							JOINT LeftShoulder
							{
								OFFSET 8.476499 7.247704 -3.868750
								CHANNELS 3 Xrotation Yrotation Zrotation
								JOINT LeftShoulder_split
								{
									OFFSET 8.476499 7.247704 -3.868750
									CHANNELS 3 Xrotation Yrotation Zrotation
									JOINT LeftArm
									{
										OFFSET 9.308998 -2.777710 0.208600
										CHANNELS 3 Xrotation Yrotation Zrotation
										JOINT LeftForeArm
										{
											OFFSET 29.972298 0.000000 0.000000
											CHANNELS 3 Xrotation Yrotation Zrotation
											JOINT LeftHand
											{
												OFFSET 26.026505 0.000000 0.000000
												CHANNELS 3 Xrotation Yrotation Zrotation
												End Site
												{
													OFFSET 0 0 0
												}
											}
										}
									}
								}
							}
						}
						JOINT RightShoulder_virtual
						{
							OFFSET 0.000000 0.000000 0.000000
							CHANNELS 3 Xrotation Yrotation Zrotation
							JOINT RightShoulder
							{
								OFFSET -7.570500 7.247704 -3.868750
								CHANNELS 3 Xrotation Yrotation Zrotation
								JOINT RightShoulder_split
								{
									OFFSET -7.570500 7.247704 -3.868750
									CHANNELS 3 Xrotation Yrotation Zrotation
									JOINT RightArm
									{
										OFFSET -9.308998 -2.777710 0.208500
										CHANNELS 3 Xrotation Yrotation Zrotation
										JOINT RightForeArm
										{
											OFFSET -29.972300 0.000000 0.000000
											CHANNELS 3 Xrotation Yrotation Zrotation
											JOINT RightHand
											{
												OFFSET -26.026505 0.000000 0.000000
												CHANNELS 3 Xrotation Yrotation Zrotation
												End Site
												{
													OFFSET 0 0 0
												}
											}
										}
									}
								}
							}
						}
					}
				}
			}
		}
	}
}
MOTION
Frames: 11
Frame Time: 0.03333333
-2.416323 83.562767 -2.895882 0.000000 0.000000 0.000000 -0.159949 -46.418700 2.894439 -32.100431 5.002507 17.925041 21.248367 -5.932183 4.577498 7.637530 -4.671045 -19.130562 -1.955125 1.051475 1.041830 0.000000 0.000000 0.000000 -1.667170 -45.524597 2.802711 -7.774582 -9.492878 -23.393809 29.952862 -6.395527 -7.955246 -16.112164 -13.111866 29.409791 -0.822125 0.200584 0.956732 0.000000 0.000000 0.000000 -1.134051 -46.188779 2.657396 6.553896 2.861059 0.337190 0.449405 2.425171 -1.595283 1.096380 -1.330182 0.920412 0.000000 0.000000 0.000000 -0.603465 1.991922 -1.417236 -17.205026 -2.196471 19.501792 -1.237626 17.674122 -17.099128 0.000000 0.000000 0.000000 -0.411996 1.829844 -1.308906 -7.371196 -7.635969 -13.845322 -5.485753 -2.507831 -2.895694 4.633088 -4.403164 -30.326173 43.988928 -38.908938 17.425476 0.000000 0.000000 0.000000 -0.803521 1.664108 -1.218833 -1.649862 14.905136 -18.891531 -6.136499 2.932060 -0.254803 -73.166735 10.772750 18.310095 -75.880608 34.148186 55.665871 0.000000 0.000000 0.000000 
-1.538624 83.149246 -3.097359 0.000000 0.000000 0.000000 -0.601372 -48.482435 3.043549 -31.967379 5.428742 18.439778 22.624156 -5.211749 3.496040 6.382346 -4.074786 -18.623969 -1.295815 1.030169 0.716197 0.000000 0.000000 0.000000 -1.862804 -47.465344 3.028055 -10.481145 -8.577429 -24.779026 31.751302 -5.196340 -7.952534 -15.749392 -12.820494 29.274727 -0.150259 0.179163 0.868557 0.000000 0.000000 0.000000 -1.727006 -48.291463 2.591652 7.097241 3.040464 0.600294 1.153317 2.435747 -1.338381 0.981472 -1.289506 1.045859 0.000000 0.000000 0.000000 -0.042269 2.011123 -1.188847 -17.518081 1.442872 19.507261 0.553597 20.848387 -16.657986 0.000000 0.000000 0.000000 0.274005 1.806025 -1.164328 -7.009341 -7.227476 -13.200808 -5.715043 -2.762678 -3.646474 4.094942 -3.213690 -30.699638 44.224317 -40.080855 18.205019 0.000000 0.000000 0.000000 -0.232134 1.680046 -0.977247 -2.558353 15.252250 -13.015539 -5.314477 3.441796 -0.111519 -65.705088 12.376661 18.990774 -78.736542 41.037098 60.590478 0.000000 0.000000 0.000000 
-0.756894 82.682747 -3.307411 0.000000 0.000000 0.000000 -0.876187 -50.645788 3.249791 -32.012803 5.721086 19.042021 24.252503 -4.592446 2.510234 5.033011 -3.505261 -18.255252 -0.741799 1.030451 0.421143 0.000000 0.000000 0.000000 -1.973772 -49.467406 3.288889 -13.279039 -7.553554 -26.034960 33.623399 -3.889110 -7.908353 -15.359622 -12.243156 29.319888 0.395794 0.199573 0.706226 0.000000 0.000000 0.000000 -2.030905 -50.405375 2.669347 7.602568 3.187911 0.804213 1.905881 2.456256 -1.180696 1.030612 -1.384486 1.071065 0.000000 0.000000 0.000000 0.566226 2.042931 -1.063545 -18.169743 4.839197 19.168598 1.886066 23.116874 -15.913301 0.000000 0.000000 0.000000 1.024229 1.796075 -1.093939 -6.692496 -6.972812 -12.494954 -6.025134 -2.979246 -4.532489 3.433259 -3.005858 -30.858067 43.353243 -40.190329 18.005222 0.000000 0.000000 0.000000 0.424952 1.699410 -0.831132 -3.551076 15.620006 -7.100074 -4.345516 4.224084 0.225631 -57.328954 13.454393 19.145891 -81.514305 48.095327 64.256617 0.000000 0.000000 0.000000 
-0.070840 82.172501 -3.437538 0.000000 0.000000 0.000000 -0.967885 -52.715950 3.485691 -32.242567 5.803258 19.663199 26.061290 -4.144660 1.677029 3.694437 -3.104132 -18.074518 -0.417996 1.034920 0.205767 0.000000 0.000000 0.000000 -1.946455 -51.362650 3.598736 -16.023586 -6.473829 -27.011877 35.407414 -2.571434 -7.819694 -15.138390 -11.517620 29.316931 0.943886 0.259119 0.524532 0.000000 0.000000 0.000000 -2.005171 -52.392680 2.901066 8.036800 3.263418 0.938846 2.645626 2.475213 -1.107592 1.052558 -1.523045 1.059783 0.000000 0.000000 0.000000 1.182588 2.065520 -1.011786 -19.074956 7.993851 18.557901 2.887406 24.636631 -15.014597 0.000000 0.000000 0.000000 1.766708 1.780471 -1.074092 -6.430363 -6.919846 -11.738086 -6.390736 -3.093393 -5.420500 2.602962 -3.533169 -30.792296 41.489694 -39.406869 16.928158 0.000000 0.000000 0.000000 1.124147 1.720362 -0.760274 -4.529699 16.028168 -1.452845 -3.609707 4.598159 0.548650 -48.826707 14.172953 19.041987 -82.622258 54.935266 65.192352 0.000000 0.000000 0.000000 
0.523748 81.630730 -3.526566 0.000000 0.000000 0.000000 -0.876456 -54.454407 3.772502 -32.648902 5.627856 20.207282 27.971792 -3.913683 1.037943 2.461728 -2.927986 -18.000414 -0.233196 1.027151 0.092266 0.000000 0.000000 0.000000 -1.777843 -53.026922 3.943049 -18.594830 -5.358814 -27.674260 37.063632 -1.390485 -7.651032 -15.159730 -10.807542 28.999774 1.527450 0.343824 0.382808 0.000000 0.000000 0.000000 -1.645566 -54.169407 3.333737 8.392695 3.251537 0.993696 3.301702 2.477913 -1.090565 1.112642 -1.630655 1.012640 0.000000 0.000000 0.000000 1.764906 2.061274 -1.003897 -20.086523 10.915710 17.774171 3.691228 25.611340 -14.151312 0.000000 0.000000 0.000000 2.438310 1.747842 -1.068920 -6.243452 -7.099575 -10.965308 -6.591929 -3.115900 -6.252240 1.579024 -4.517737 -30.519123 38.974924 -38.099622 15.281298 0.000000 0.000000 0.000000 1.783533 1.738156 -0.732223 -5.427877 16.457435 3.560266 -2.858054 4.821384 1.019832 -40.975671 14.725543 18.852523 -80.324548 61.167793 61.851024 0.000000 0.000000 0.000000 
0.992551 81.088928 -3.511528 0.000000 0.000000 0.000000 -0.651169 -55.782934 4.136267 -33.149169 5.251924 20.606558 29.853780 -3.864190 0.581159 1.391369 -2.935969 -17.980500 -0.006012 1.007934 0.047339 0.000000 0.000000 0.000000 -1.518013 -54.443602 4.343503 -20.895350 -4.260387 -28.146569 38.657996 -0.406681 -7.389513 -15.372406 -10.224670 28.340606 2.051652 0.438658 0.307061 0.000000 0.000000 0.000000 -1.104555 -55.659143 3.912209 8.678268 3.157364 0.947159 3.819790 2.450474 -1.111700 0.981175 -1.611844 0.873549 0.000000 0.000000 0.000000 2.309187 2.013865 -1.022374 -21.030011 13.605723 16.940288 4.459356 26.257587 -13.465327 0.000000 0.000000 0.000000 2.996562 1.691481 -1.059732 -6.128658 -7.513785 -10.185615 -6.590659 -3.052027 -6.964106 0.358813 -5.620882 -30.061216 36.129238 -36.734448 13.407573 0.000000 0.000000 0.000000 2.356776 1.730036 -0.741542 -6.178065 16.869968 7.633153 -2.129923 4.590819 1.550177 -34.229240 15.187732 18.807308 -72.821851 66.297170 52.728992 0.000000 0.000000 0.000000 
1.337997 80.544289 -3.428833 0.000000 0.000000 0.000000 -0.415184 -56.699262 4.556766 -33.625271 4.799404 20.818447 31.529950 -3.883505 0.253182 0.474616 -2.975093 -17.890972 0.299526 0.985149 0.027569 0.000000 0.000000 0.000000 -1.196452 -55.575405 4.819544 -22.872067 -3.179924 -28.595620 40.250090 0.441221 -7.066623 -15.703609 -9.783715 27.555471 2.395284 0.521971 0.275670 0.000000 0.000000 0.000000 -0.528093 -56.802353 4.590324 8.915019 2.982364 0.785094 4.188312 2.366494 -1.160473 0.822117 -1.503315 0.774098 0.000000 0.000000 0.000000 2.789620 1.912834 -1.067304 -21.781258 16.062897 16.171479 5.249918 26.762312 -13.027960 0.000000 0.000000 0.000000 3.438000 1.602143 -1.058902 -6.072737 -8.128848 -9.460798 -6.334874 -2.972792 -7.519251 -0.944344 -6.571422 -29.458500 33.288204 -35.727774 11.588693 0.000000 0.000000 0.000000 2.832384 1.678421 -0.795817 -6.704918 17.187339 10.549183 -1.568725 4.105025 2.044894 -28.696077 15.586302 18.959036 -59.650726 69.512392 37.699909 0.000000 0.000000 0.000000 
1.568540 80.007248 -3.325844 0.000000 0.000000 0.000000 -0.160531 -57.291572 5.061598 -33.976267 4.393938 20.879748 32.883570 -3.867332 -0.015775 -0.357581 -2.907176 -17.658477 0.641701 0.964244 0.008184 0.000000 0.000000 0.000000 -0.874653 -56.464522 5.339307 -24.521965 -2.149309 -29.156992 41.845810 1.210307 -6.721127 -16.053566 -9.439389 26.851193 2.512734 0.588102 0.254699 0.000000 0.000000 0.000000 0.025393 -57.605050 5.342161 9.118214 2.749140 0.530216 4.433365 2.215388 -1.240392 0.619851 -1.322824 0.651331 0.000000 0.000000 0.000000 3.197096 1.754807 -1.150411 -22.292853 18.243992 15.546245 6.013095 27.194386 -12.769522 0.000000 0.000000 0.000000 3.791952 1.467355 -1.082037 -6.060659 -8.871291 -8.807217 -5.855510 -2.943937 -7.895493 -2.274660 -7.203174 -28.775187 30.543851 -35.203792 9.899616 0.000000 0.000000 0.000000 3.204193 1.570689 -0.904323 -7.010723 17.349194 12.250148 -1.048209 3.694723 2.447801 -24.365192 15.799283 19.322878 -44.085046 70.527891 20.378293 0.000000 0.000000 0.000000 
1.681080 79.469269 -3.181980 0.000000 0.000000 0.000000 0.047676 -57.667888 5.599166 -34.170296 4.147983 20.879829 33.889336 -3.782736 -0.312851 -1.119553 -2.688781 -17.314941 0.922572 0.944350 -0.024273 0.000000 0.000000 0.000000 -0.501574 -57.139891 5.936212 -25.837306 -1.224071 -29.843193 43.345654 1.956197 -6.411607 -16.469924 -9.161340 26.357196 2.487202 0.635168 0.209892 0.000000 0.000000 0.000000 0.494281 -58.138017 6.082580 9.308962 2.473544 0.224080 4.616304 2.002921 -1.357083 0.450797 -1.159724 0.612090 0.000000 0.000000 0.000000 3.532828 1.550675 -1.286558 -22.572086 20.125846 15.097496 6.649173 27.581856 -12.561952 0.000000 0.000000 0.000000 4.094885 1.288461 -1.160081 -6.068066 -9.665518 -8.253163 -5.317674 -2.886018 -8.106150 -3.561369 -7.398722 -28.053793 27.931717 -35.106377 8.350785 0.000000 0.000000 0.000000 3.533365 1.400879 -1.075349 -7.090127 17.292454 12.838296 -0.863523 3.332548 2.824107 -21.062049 15.721303 19.828727 -30.743160 70.125539 5.713637 0.000000 0.000000 0.000000 
1.729705 78.929504 -3.035168 0.000000 0.000000 0.000000 0.244220 -57.977801 6.145573 -34.251346 4.077535 20.918800 34.610983 -3.677597 -0.694055 -1.801544 -2.384880 -16.906144 1.032601 0.917592 -0.042760 0.000000 0.000000 0.000000 -0.076371 -57.639611 6.568134 -26.844295 -0.422558 -30.588729 44.664328 2.703113 -6.151428 -17.030957 -8.918613 26.061770 2.527193 0.671784 0.130429 0.000000 0.000000 0.000000 0.907597 -58.504422 6.784227 9.485536 2.175245 -0.088686 4.791691 1.744313 -1.515914 0.488336 -1.094476 0.640483 0.000000 0.000000 0.000000 3.810965 1.312605 -1.476731 -22.735596 21.681221 14.827716 7.034084 27.902025 -12.296777 0.000000 0.000000 0.000000 4.382385 1.070521 -1.305742 -6.083160 -10.409752 -7.825851 -4.813146 -2.711625 -8.143395 -4.754616 -7.137864 -27.349192 25.469724 -35.303226 6.944143 0.000000 0.000000 0.000000 3.848890 1.189212 -1.302531 -6.986634 17.004864 12.557198 -0.874902 3.137766 3.153269 -18.742104 15.198120 20.423256 -21.175166 69.511689 -4.515298 0.000000 0.000000 0.000000 
1.725677 78.404213 -2.849640 0.000000 0.000000 0.000000 0.462331 -58.295255 6.669801 -34.290954 4.169165 21.081365 35.203358 -3.626327 -1.178988 -2.430571 -2.079080 -16.438268 1.032302 0.875420 -0.028644 0.000000 0.000000 0.000000 0.369214 -58.071149 7.190469 -27.613582 0.234893 -31.308375 45.798259 3.411446 -5.926397 -17.717437 -8.695917 25.820384 2.797658 0.711755 0.040250 0.000000 0.000000 0.000000 1.289366 -58.798681 7.402331 9.647866 1.891112 -0.352267 5.009540 1.472685 -1.716613 0.543747 -0.986255 0.687650 0.000000 0.000000 0.000000 4.048552 1.070143 -1.711941 -22.883961 22.915262 14.671929 7.110528 28.132501 -11.890243 0.000000 0.000000 0.000000 4.680268 0.834490 -1.517614 -6.099590 -11.014328 -7.510001 -4.380265 -2.420621 -7.993685 -5.838756 -6.406631 -26.675113 23.105533 -35.646207 5.661875 0.000000 0.000000 0.000000 4.169808 0.967558 -1.563467 -6.770098 16.526203 11.775771 -0.791189 2.937284 3.356957 -17.373431 13.989783 21.117002 -14.513329 69.323155 -11.061896 0.000000 0.000000 0.000000 
